<?xml version="1.0" encoding="UTF-8"?>
<svg id="a" data-name="图层 1" xmlns="http://www.w3.org/2000/svg" xmlns:xlink="http://www.w3.org/1999/xlink" viewBox="0 0 512 512">
  <defs>
    <filter id="b" data-name="drop-shadow-1" filterUnits="userSpaceOnUse">
      <feOffset dx="0" dy="7"/>
      <feGaussianBlur result="c" stdDeviation="5"/>
      <feFlood flood-color="#000" flood-opacity=".15"/>
      <feComposite in2="c" operator="in"/>
      <feComposite in="SourceGraphic"/>
    </filter>
    <filter id="d" data-name="drop-shadow-2" filterUnits="userSpaceOnUse">
      <feOffset dx="0" dy="7"/>
      <feGaussianBlur result="e" stdDeviation="5"/>
      <feFlood flood-color="#000" flood-opacity=".15"/>
      <feComposite in2="e" operator="in"/>
      <feComposite in="SourceGraphic"/>
    </filter>
    <filter id="f" data-name="drop-shadow-3" filterUnits="userSpaceOnUse">
      <feOffset dx="0" dy="7"/>
      <feGaussianBlur result="g" stdDeviation="5"/>
      <feFlood flood-color="#000" flood-opacity=".15"/>
      <feComposite in2="g" operator="in"/>
      <feComposite in="SourceGraphic"/>
    </filter>
    <filter id="h" data-name="drop-shadow-5" filterUnits="userSpaceOnUse">
      <feOffset dx="0" dy="10"/>
      <feGaussianBlur result="i" stdDeviation="5"/>
      <feFlood flood-color="#000" flood-opacity=".3"/>
      <feComposite in2="i" operator="in"/>
      <feComposite in="SourceGraphic"/>
    </filter>
  </defs>
  <g>
    <g style="filter: url(#b);">
      <g>
        <path d="M128.61,228.93c-.58,0-1.16-.13-1.7-.38-1.18-.56-2.02-1.65-2.24-2.94-3.69-21.53-.39-41.86,9.29-57.81l-18.96-9.81c-2.77-1.37-3.85-4.53-2.51-7.37,.93-1.97,2.8-3.2,4.9-3.2,.86,0,1.71,.2,2.53,.59l20.54,10.32c5.2-7.11,14.56-16.08,23.22-20.57,7.68-3.98,20.3-8.7,30.41-10.53v-20.99c0-2.93,2.47-5.4,5.39-5.4s5.39,2.47,5.39,5.4v20.63c19.74,1.33,36.1,7.9,54,21.57,1.06,.81,1.65,2.1,1.56,3.44-.09,1.34-.84,2.54-2,3.21l-127.83,73.31c-.61,.35-1.3,.53-1.99,.53Z" style="fill: #3ddc84;"/>
        <path d="M199.47,104.84c.69,0,1.39,.7,1.39,1.4v24.44c21.54,.7,38.21,7.68,55.58,20.95l-127.83,73.31c-3.47-20.25-.69-41.89,11.12-58.65l-22.93-11.87c-.88-.42-1.11-1.21-.69-2.09,.28-.6,.74-.9,1.28-.9,.25,0,.53,.07,.81,.2l23.62,11.87c4.17-6.98,14.59-17.46,23.7-22.18,9.06-4.7,23.19-9.56,32.57-10.64v-24.44c0-.7,.69-1.4,1.39-1.4m0-8c-5.09,0-9.39,4.3-9.39,9.4v17.72c-9.84,2.2-20.94,6.46-28.25,10.25-8.22,4.26-16.81,12.06-22.53,19.07l-17.52-8.81s-.09-.04-.13-.07c-1.37-.65-2.8-.99-4.26-.99-3.66,0-6.92,2.1-8.51,5.49-2.29,4.86-.43,10.27,4.32,12.64l15.24,7.89c-8.54,16.15-11.28,35.99-7.7,56.84,.44,2.57,2.11,4.77,4.48,5.89,1.08,.51,2.25,.76,3.41,.76,1.38,0,2.75-.36,3.98-1.06l127.83-73.31c2.32-1.33,3.83-3.74,4-6.41,.18-2.67-1-5.26-3.13-6.88-17.19-13.13-33.64-20.1-52.43-22.06v-16.96c0-5.09-4.3-9.4-9.39-9.4h0Z" style="fill: #fff;"/>
      </g>
      <g>
        <path d="M192.86,342.26c-.35,0-.69-.04-1.04-.14-1.03-.28-1.9-.95-2.43-1.87l-59.71-103.94c-1.1-1.91-.44-4.35,1.46-5.45l128.94-74.82c.62-.36,1.31-.54,2.01-.54,.35,0,.69,.04,1.04,.14,1.03,.28,1.9,.95,2.43,1.87l59.71,103.94c1.1,1.91,.44,4.35-1.46,5.45l-128.94,74.82c-.61,.36-1.31,.54-2.01,.54Z" style="fill: #3ddc84;"/>
        <path d="M262.08,159.5l59.71,103.94-128.94,74.82-59.71-103.94,128.94-74.82m0-8c-1.4,0-2.78,.37-4.02,1.08l-128.94,74.82c-3.81,2.21-5.12,7.09-2.92,10.9l59.71,103.94c1.06,1.85,2.81,3.19,4.87,3.74,.68,.18,1.38,.27,2.07,.27,1.4,0,2.78-.37,4.02-1.08l128.94-74.82c3.81-2.21,5.12-7.09,2.92-10.9l-59.71-103.94c-1.06-1.85-2.81-3.19-4.87-3.74-.68-.18-1.38-.27-2.07-.27h0Z" style="fill: #fff;"/>
      </g>
      <ellipse cx="153.25" cy="186.16" rx="8.8" ry="8.84" style="fill: #fff;"/>
      <ellipse cx="208.38" cy="154.28" rx="8.8" ry="8.84" style="fill: #fff;"/>
    </g>
    <g style="filter: url(#d);">
      <g>
        <path d="M250.92,411.16c-67.61,0-122.63-54.42-122.64-121.29,0-66.88,55.02-121.3,122.64-121.31,.13,0,.26,0,.39,.02,67.46,.21,122.27,54.54,122.28,121.29-.01,66.88-55.04,121.29-122.66,121.29h-.02Z" style="fill: #4285f4;"/>
        <path d="M250.92,172.56v.02h.02c65.52,0,118.65,52.51,118.66,117.29-.01,64.78-53.13,117.29-118.66,117.29h-.02c-65.52-.01-118.63-52.52-118.64-117.29,0-64.78,53.11-117.3,118.64-117.31m0-8h0c-33.81,0-65.6,13.03-89.52,36.68-23.94,23.67-37.12,55.15-37.12,88.63,0,33.48,13.19,64.95,37.13,88.62,23.91,23.64,55.7,36.66,89.51,36.67,33.83,0,65.62-13.02,89.54-36.66,23.94-23.67,37.13-55.14,37.14-88.63,0-33.49-13.19-64.96-37.14-88.63-23.79-23.51-55.37-36.52-88.98-36.66-.19-.01-.37-.02-.56-.02h0Z" style="fill: #fff;"/>
      </g>
      <g>
        <ellipse cx="368.28" cy="171.11" rx="39.26" ry="38.85" style="fill: #4285f4;"/>
        <path d="M368.28,136.26c19.47,0,35.26,15.6,35.26,34.85s-15.78,34.85-35.26,34.85-35.26-15.6-35.26-34.85c0-19.25,15.78-34.85,35.26-34.85m0-8c-23.85,0-43.26,19.22-43.26,42.85,0,23.63,19.4,42.85,43.26,42.85s43.26-19.22,43.26-42.85-19.4-42.85-43.26-42.85h0Z" style="fill: #fff;"/>
      </g>
      <ellipse cx="298.46" cy="240.29" rx="34.22" ry="34.91" style="fill: #fff;"/>
      <g>
        <path d="M170.81,267.64h11.15v66.61h36.68v10.05h-47.83v-76.66Z" style="fill: #fff;"/>
        <path d="M261.78,289.95h10.73v54.36h-9.48c-.14-3.49-.38-6.42-.73-8.8-1.74,3.35-4.13,5.85-7.19,7.49-3.06,1.64-6.46,2.46-10.21,2.46-5.84,0-10.49-1.92-13.96-5.76-3.47-3.84-5.21-9.39-5.21-16.65v-33.09h10.63v29.95c0,4.96,.94,8.82,2.81,11.57,1.88,2.76,4.72,4.14,8.54,4.14s7.21-1.4,9.95-4.19c2.74-2.79,4.12-6.74,4.12-11.83v-29.64Z" style="fill: #fff;"/>
        <path d="M324.98,294.45c3.99,3.84,5.99,9.36,5.99,16.55v33.3h-9.27c-.14-3.14-.31-5.38-.52-6.7-3.33,5.24-8.68,7.86-16.05,7.86-3.61,0-6.93-.67-9.95-1.99-3.02-1.33-5.44-3.25-7.24-5.76-1.81-2.51-2.71-5.55-2.71-9.11,0-5.38,2.19-9.63,6.56-12.78,4.38-3.14,9.97-4.71,16.78-4.71,3.82,0,7.75,.52,11.78,1.57v-.21c0-4.96-.97-8.6-2.92-10.94-1.95-2.34-4.86-3.51-8.75-3.51-3.13,0-5.75,.68-7.87,2.04-2.12,1.36-3.91,3.33-5.37,5.92l-7.92-4.61c1.74-3.84,4.55-6.91,8.44-9.22,3.89-2.3,8.34-3.46,13.34-3.46,6.46,0,11.69,1.92,15.68,5.76Zm-4.64,26.39c-4.17-1.05-7.82-1.57-10.94-1.57-4.17,0-7.4,.8-9.69,2.41-2.29,1.61-3.44,3.84-3.44,6.7,0,2.58,.94,4.63,2.81,6.13,1.88,1.5,4.34,2.25,7.4,2.25,3.82,0,7.09-1.1,9.8-3.3,2.71-2.2,4.06-5.25,4.06-9.16v-3.46Z" style="fill: #fff;"/>
      </g>
    </g>
    <g style="filter: url(#f);">
      <g>
        <path d="M335.6,247.04c-7.43,0-14-4.02-18.03-11.04l-34.74-60.75c-6.81-11.86-1.14-22.36,7.02-27.09,3.39-1.96,7.17-3,10.95-3,7.08,0,13.04,3.57,16.76,10.06l34.73,60.04c6.69,11.65,1.57,24.22-7.01,29.2-2.92,1.69-6.26,2.59-9.68,2.59Z" style="fill: #3ddc84;"/>
        <path d="M300.8,149.15c4.96,0,9.98,2.29,13.29,8.05l34.74,60.05c5.42,9.43,1.28,19.77-5.56,23.74-2.3,1.33-4.95,2.05-7.67,2.05-5.36,0-10.97-2.77-14.56-9.03l-34.74-60.74c-5.41-9.42-1.27-17.68,5.56-21.64,2.65-1.54,5.79-2.46,8.94-2.46m0-8h0c-4.48,0-8.96,1.23-12.95,3.54-10.13,5.88-16.29,18.95-8.48,32.55l34.73,60.73c4.7,8.18,12.74,13.06,21.5,13.06,4.12,0,8.16-1.08,11.69-3.13,10.24-5.94,16.39-20.87,8.48-34.64l-34.75-60.07c-4.39-7.65-11.77-12.04-20.22-12.04h0Z" style="fill: #fff;"/>
      </g>
      <g>
        <path d="M160.23,348.3c-7.43,0-14-4.02-18.03-11.04l-34.74-60.75c-6.81-11.86-1.14-22.36,7.02-27.09,3.39-1.96,7.17-3,10.95-3,7.08,0,13.04,3.57,16.76,10.06l34.73,60.04c6.69,11.65,1.57,24.22-7.01,29.2-2.92,1.69-6.26,2.59-9.68,2.59Z" style="fill: #3ddc84;"/>
        <path d="M125.43,250.42c4.96,0,9.98,2.29,13.29,8.05l34.74,60.05c5.42,9.43,1.28,19.77-5.56,23.74-2.3,1.33-4.95,2.05-7.67,2.05-5.36,0-10.97-2.77-14.56-9.03l-34.74-60.74c-5.41-9.42-1.27-17.68,5.56-21.64,2.65-1.54,5.79-2.46,8.94-2.46m0-8h0c-4.48,0-8.96,1.23-12.95,3.54-10.13,5.88-16.29,18.95-8.48,32.55l34.73,60.73c4.7,8.18,12.74,13.06,21.5,13.06,4.12,0,8.16-1.08,11.69-3.13,10.24-5.94,16.39-20.87,8.48-34.64l-34.75-60.07c-4.39-7.65-11.77-12.04-20.22-12.04h0Z" style="fill: #fff;"/>
      </g>
    </g>
  </g>
  <g style="filter: url(#h);">
    <path d="M120.53,428.48c-20.11,0-35.68-6.02-46.72-18.05-11.04-12.03-16.56-28.85-16.56-50.45,0-10.37,1.3-20.61,3.89-30.73,2.59-10.12,3.89-20.61,3.89-31.47,0-7.03-2.56-12.56-7.68-16.57-5.12-4.01-11.41-6.82-18.87-8.42-7.46-1.6-14.77-2.41-21.92-2.41v-27.77c5.18,0,10.57-.58,16.19-1.76,5.61-1.17,10.88-2.93,15.82-5.28,4.93-2.34,8.91-5.24,11.93-8.7,3.02-3.45,4.53-7.34,4.53-11.66,0-11.35-1.29-21.97-3.89-31.84-2.59-9.87-3.89-19.99-3.89-30.36,0-20.85,5.52-36.93,16.56-48.22,11.04-11.29,26.61-16.94,46.72-16.94,6.91,0,12.64,.34,17.21,1.02,4.56,.68,8.82,1.57,12.77,2.68l-3.89,26.1c-4.19-.62-8.2-1.11-12.03-1.48-3.82-.37-7.4-.56-10.73-.56-11.35,0-19.98,3.27-25.9,9.81-5.92,6.54-8.88,15.74-8.88,27.58,0,10.74,1.42,20.98,4.26,30.73,2.84,9.75,4.26,19.99,4.26,30.73,0,12.47-4.26,22.12-12.77,28.97-8.51,6.85-20.42,10.4-35.71,10.64v4.81c15.29,.25,27.2,3.92,35.71,11.01,8.51,7.1,12.77,16.63,12.77,28.6,0,11.23-1.42,21.72-4.26,31.47-2.84,9.75-4.26,19.75-4.26,29.99,0,12.96,2.96,22.99,8.88,30.08s14.55,10.64,25.9,10.64c3.33,0,6.91-.22,10.73-.65,3.82-.43,7.83-.9,12.03-1.39l3.89,26.1c-3.95,1.11-8.2,2-12.77,2.68-4.56,.68-10.3,1.02-17.21,1.02Z" style="fill: #073042;"/>
    <path d="M391.48,428.48c-6.79,0-12.52-.34-17.21-1.02-4.69-.68-8.94-1.57-12.77-2.68l3.7-26.1c4.19,.62,8.23,1.11,12.12,1.48,3.88,.37,7.49,.55,10.82,.55,11.22,0,19.8-3.55,25.72-10.64,5.92-7.1,8.88-17.12,8.88-30.08,0-10.24-1.42-20.24-4.26-29.99-2.84-9.75-4.25-20.24-4.25-31.47,0-11.97,4.25-21.5,12.77-28.6,8.51-7.09,20.41-10.77,35.71-11.01v-4.81c-15.3-.25-27.2-3.79-35.71-10.64s-12.77-16.5-12.77-28.97c0-10.74,1.42-20.98,4.25-30.73,2.84-9.75,4.26-19.99,4.26-30.73,0-11.85-2.96-21.04-8.88-27.58-5.92-6.54-14.5-9.81-25.72-9.81-3.33,0-6.94,.19-10.82,.56-3.89,.37-7.93,.86-12.12,1.48l-3.7-26.1c3.82-1.11,8.08-2,12.77-2.68,4.69-.68,10.42-1.02,17.21-1.02,20.1,0,35.68,5.65,46.72,16.94,11.04,11.29,16.56,27.37,16.56,48.22,0,10.37-1.29,20.49-3.88,30.36-2.59,9.88-3.89,20.49-3.89,31.84,0,4.32,1.51,8.21,4.53,11.66,3.02,3.46,6.97,6.36,11.84,8.7,4.87,2.35,10.14,4.1,15.82,5.28,5.67,1.17,11.1,1.76,16.28,1.76v27.77c-7.28,0-14.65,.8-22.11,2.41-7.46,1.61-13.72,4.41-18.78,8.42-5.06,4.01-7.59,9.53-7.59,16.57,0,10.86,1.29,21.35,3.89,31.47,2.59,10.12,3.88,20.36,3.88,30.73,0,21.6-5.52,38.41-16.56,50.45-11.04,12.03-26.61,18.05-46.72,18.05Z" style="fill: #073042;"/>
  </g>
</svg>