<svg xmlns="http://www.w3.org/2000/svg" xmlns:xlink="http://www.w3.org/1999/xlink" width="500" height="500" viewBox="0 0 500 500" fill="none"><defs><rect id="path_0" x="0" y="0" width="500" height="500" /><linearGradient id="linear_0" x1="16.435%" y1="0%" x2="76.45100000000001%" y2="86.738%" gradientUnits="objectBoundingBox"><stop offset="0" stop-color="#33FF63" stop-opacity="1" /><stop offset="1" stop-color="#056DFF" stop-opacity="1" /></linearGradient><filter id="filter_4" x="73" y="73" width="358" height="358" filterUnits="userSpaceOnUse" color-interpolation-filters="sRGB"><feFlood flood-opacity="0" result="BackgroundImageFix"/>
          <feColorMatrix in="SourceAlpha" type="matrix" values="0 0 0 0 0 0 0 0 0 0 0 0 0 0 0 0 0 0 127 0"/>
          <feOffset dx="0" dy="0"/>
          <feGaussianBlur stdDeviation="2"/>
          <feColorMatrix type="matrix" values="0 0 0 0 0 0 0 0 0 0 0 0 0 0 0 0 0 0 0.25 0"/>
          <feBlend mode="normal" in2="BackgroundImageFix" result="effect1_Shadow"/>
          <feBlend mode="normal" in="SourceGraphic" in2="effect1_Shadow" result="shape"/></filter><filter id="filter_6" x="100" y="100" width="304" height="304" filterUnits="userSpaceOnUse" color-interpolation-filters="sRGB"><feFlood flood-opacity="0" result="BackgroundImageFix"/>
          <feColorMatrix in="SourceAlpha" type="matrix" values="0 0 0 0 0 0 0 0 0 0 0 0 0 0 0 0 0 0 127 0"/>
          <feOffset dx="0" dy="0"/>
          <feGaussianBlur stdDeviation="2.5"/>
          <feColorMatrix type="matrix" values="0 0 0 0 0 0 0 0 0 0 0 0 0 0 0 0 0 0 0.25 0"/>
          <feBlend mode="normal" in2="BackgroundImageFix" result="effect1_Shadow"/>
          <feBlend mode="normal" in="SourceGraphic" in2="effect1_Shadow" result="shape"/></filter><linearGradient id="linear_1" x1="0%" y1="50%" x2="100%" y2="50%" gradientUnits="objectBoundingBox"><stop offset="0" stop-color="#00BFFF" stop-opacity="1" /><stop offset="1" stop-color="#529DF2" stop-opacity="1" /></linearGradient><filter id="filter_8" x="62" y="62" width="380" height="380" filterUnits="userSpaceOnUse" color-interpolation-filters="sRGB"><feFlood flood-opacity="0" result="BackgroundImageFix"/>
          <feColorMatrix in="SourceAlpha" type="matrix" values="0 0 0 0 0 0 0 0 0 0 0 0 0 0 0 0 0 0 127 0"/>
          <feOffset dx="0" dy="0"/>
          <feGaussianBlur stdDeviation="5"/>
          <feColorMatrix type="matrix" values="0 0 0 0 0 0 0 0 0 0 0 0 0 0 0 0 0 0 0.25 0"/>
          <feBlend mode="normal" in2="BackgroundImageFix" result="effect1_Shadow"/>
          <feBlend mode="normal" in="SourceGraphic" in2="effect1_Shadow" result="shape"/></filter><linearGradient id="linear_2" x1="0%" y1="50%" x2="100%" y2="50%" gradientUnits="objectBoundingBox"><stop offset="0" stop-color="#3388FF" stop-opacity="1" /><stop offset="1" stop-color="#1071E0" stop-opacity="1" /></linearGradient><filter id="filter_12" x="-6" y="-6" width="250" height="250" filterUnits="userSpaceOnUse" color-interpolation-filters="sRGB"><feFlood flood-opacity="0" result="BackgroundImageFix"/>
          <feColorMatrix in="SourceAlpha" type="matrix" values="0 0 0 0 0 0 0 0 0 0 0 0 0 0 0 0 0 0 127 0"/>
          <feOffset dx="0" dy="0"/>
          <feGaussianBlur stdDeviation="3"/>
          <feColorMatrix type="matrix" values="0 0 0 0 0 0 0 0 0 0 0 0 0 0 0 0 0 0 0.25 0"/>
          <feBlend mode="normal" in2="BackgroundImageFix" result="effect1_Shadow"/>
          <feBlend mode="normal" in="SourceGraphic" in2="effect1_Shadow" result="shape"/></filter><linearGradient id="linear_3" x1="0%" y1="50%" x2="100%" y2="50%" gradientUnits="objectBoundingBox"><stop offset="0" stop-color="#FFEB3B" stop-opacity="1" /><stop offset="1" stop-color="#FFC300" stop-opacity="1" /></linearGradient><filter id="filter_16" x="49" y="-7" width="210.5" height="197" filterUnits="userSpaceOnUse" color-interpolation-filters="sRGB"><feFlood flood-opacity="0" result="BackgroundImageFix"/>
          <feColorMatrix in="SourceAlpha" type="matrix" values="0 0 0 0 0 0 0 0 0 0 0 0 0 0 0 0 0 0 127 0"/>
          <feOffset dx="0" dy="0"/>
          <feGaussianBlur stdDeviation="3.5"/>
          <feColorMatrix type="matrix" values="0 0 0 0 0 0 0 0 0 0 0 0 0 0 0 0 0 0 0.25 0"/>
          <feBlend mode="normal" in2="BackgroundImageFix" result="effect1_Shadow"/>
          <feBlend mode="normal" in="SourceGraphic" in2="effect1_Shadow" result="shape"/></filter><filter id="filter_18" x="84.00000000000003" y="70.5" width="72.50000000000003" height="97.43178170144463" filterUnits="userSpaceOnUse" color-interpolation-filters="sRGB"><feFlood flood-opacity="0" result="BackgroundImageFix"/>
          <feColorMatrix in="SourceAlpha" type="matrix" values="0 0 0 0 0 0 0 0 0 0 0 0 0 0 0 0 0 0 127 0"/>
          <feOffset dx="0" dy="0"/>
          <feGaussianBlur stdDeviation="3.5"/>
          <feColorMatrix type="matrix" values="0 0 0 0 0 0 0 0 0 0 0 0 0 0 0 0 0 0 0.25 0"/>
          <feBlend mode="normal" in2="BackgroundImageFix" result="effect1_Shadow"/>
          <feBlend mode="normal" in="SourceGraphic" in2="effect1_Shadow" result="shape"/></filter></defs><g opacity="1" transform="translate(0 0)  rotate(0 250 250)"><rect fill="#FFFFFF" opacity="1" transform="translate(0 0)  rotate(0 250 250)" x="0" y="0" width="500" height="500" /><mask id="bg-mask-0" fill="white"><use xlink:href="#path_0"></use></mask><g mask="url(#bg-mask-0)" ><path id="圆形 1" fill-rule="evenodd" style="fill:#FFFFFF" transform="translate(72 72)  rotate(0 180 180)" opacity="1" d="M180,0C80.59,0 0,80.59 0,180C0,279.41 80.59,360 180,360C279.41,360 360,279.41 360,180C360,80.59 279.41,0 180,0Z " /><g id="圆形 1" filter="url(#filter_4)"><path id="圆形 1" fill-rule="evenodd" fill="url(#linear_0)" transform="translate(77 77)  rotate(0 175 175)" opacity="1" d="M175,0C78.35,0 0,78.35 0,175C0,271.65 78.35,350 175,350C271.65,350 350,271.65 350,175C350,78.35 271.65,0 175,0Z " /></g><g id="圆形 1" filter="url(#filter_6)"><path id="圆形 1" fill-rule="evenodd" style="fill:#33A6F2" transform="translate(105 105)  rotate(0 147 147)" opacity="1" d="M147,0C65.81,0 0,65.81 0,147C0,228.19 65.81,294 147,294C228.19,294 294,228.19 294,147C294,65.81 228.19,0 147,0Z " /></g><g id="圆形 2" filter="url(#filter_8)"><path id="圆形 2" fill-rule="evenodd" fill="url(#linear_1)" transform="translate(72 72)  rotate(0 180 180)" opacity="1" d="M180,180L304.6,304.6C305.31,305.31 306.27,305.71 307.27,305.71C308.28,305.7 309.24,305.29 309.93,304.57C325.4,288.43 337.74,269.55 346.3,248.88C355.34,227.04 360,203.64 360,180C360,156.36 355.34,132.96 346.3,111.12C337.25,89.28 323.99,69.44 307.28,52.72C290.56,36.01 270.72,22.75 248.88,13.7C227.04,4.66 203.64,0 180,0C156.36,0 132.96,4.66 111.12,13.7C90.51,22.24 71.69,34.52 55.59,49.92C54.82,50.66 54.39,51.67 54.39,52.73C54.38,53.8 54.8,54.81 55.56,55.56Z " /></g><g opacity="1" transform="translate(131 132)  rotate(0 126.25000000000001 119)"><g id="圆形 1" filter="url(#filter_12)"><path id="圆形 1" fill-rule="evenodd" fill="url(#linear_2)" transform="translate(0 0)  rotate(0 119 119)" opacity="1" d="M119,0C53.28,0 0,53.28 0,119C0,184.72 53.28,238 119,238C184.72,238 238,184.72 238,119C238,53.28 184.72,0 119,0Z " /></g><path id="圆形 1" fill-rule="evenodd" style="fill:#005BB0" transform="translate(29 28)  rotate(0 90.5 90.5)" opacity="1" d="M90.5,0C40.52,0 0,40.52 0,90.5C0,140.48 40.52,181 90.5,181C140.48,181 181,140.48 181,90.5C181,40.52 140.48,0 90.5,0Z " /><g id="圆形 1" filter="url(#filter_16)"><path id="圆形 1" fill-rule="evenodd" fill="url(#linear_3)" transform="translate(56 0)  rotate(0 98.25000000000001 91.5)" opacity="1" d="M180.44,7.59C196.5,0 81.67,55 64,55C28.65,55 0,83.65 0,119C0,154.35 28.65,183 64,183C99.35,183 128,154.35 128,119C128,105.54 167.73,43.56 186.68,14.77C187.89,12.92 187.73,10.49 186.28,8.82C184.83,7.14 182.44,6.64 180.44,7.59Z " /></g><g id="多边形 1" filter="url(#filter_18)"><path id="多边形 1" fill-rule="evenodd" style="fill:#FFFFFF" transform="translate(91.00000000000003 77.5)  rotate(0 29.25000000000001 41.71589085072232)" opacity="1" d="M38.65,5.2L3.1,30.33C2.35,30.86 1.89,31.7 1.84,32.62C1.79,33.54 2.16,34.42 2.85,35.03L19.54,49.72C20.43,50.5 20.77,51.72 20.43,52.85L13.53,75.23C13.15,76.45 13.59,77.77 14.62,78.53C15.64,79.29 17.04,79.31 18.09,78.59L55.16,53.28C55.94,52.74 56.43,51.87 56.46,50.92C56.5,49.98 56.09,49.07 55.35,48.47L37.11,33.82C36.13,33.04 35.74,31.74 36.13,30.55L43.23,8.57C43.62,7.34 43.19,6 42.15,5.24C41.11,4.48 39.7,4.46 38.65,5.2Z " /></g></g><g opacity="1" transform="translate(278 275)  rotate(0 2 1)"><text><tspan x="0" y="1.05" font-size="1" line-height="0" fill="#FFC300" opacity="1" font-family="AlibabaPuHuiTi-Light" letter-spacing="0" >小白BZS</tspan></text></g><g opacity="1" transform="translate(298 246)  rotate(0 2 1)"><text><tspan x="0" y="1.05" font-size="1" line-height="0" fill="#FFC300" opacity="1" font-family="AlibabaPuHuiTi-Light" letter-spacing="0" >小白BZS</tspan></text></g><g opacity="1" transform="translate(285 205)  rotate(0 2 1)"><text><tspan x="0" y="1.05" font-size="1" line-height="0" fill="#FFC300" opacity="1" font-family="AlibabaPuHuiTi-Light" letter-spacing="0" >小白BZS</tspan></text></g><g opacity="1" transform="translate(321 179)  rotate(0 2 1)"><text><tspan x="0" y="1.05" font-size="1" line-height="0" fill="#FFE600" opacity="1" font-family="AlibabaPuHuiTi-Light" letter-spacing="0" >小白BZS</tspan></text></g></g></g></svg>