<?xml version="1.0" encoding="UTF-8"?>
<svg id="a" data-name="图层 1" xmlns="http://www.w3.org/2000/svg" xmlns:xlink="http://www.w3.org/1999/xlink" viewBox="0 0 454.75 463">
  <defs>
    <filter id="b" data-name="drop-shadow-1" filterUnits="userSpaceOnUse">
      <feOffset dx="0" dy="7"/>
      <feGaussianBlur result="c" stdDeviation="5"/>
      <feFlood flood-color="#000" flood-opacity=".15"/>
      <feComposite in2="c" operator="in"/>
      <feComposite in="SourceGraphic"/>
    </filter>
    <filter id="d" data-name="drop-shadow-2" filterUnits="userSpaceOnUse">
      <feOffset dx="0" dy="7"/>
      <feGaussianBlur result="e" stdDeviation="5"/>
      <feFlood flood-color="#000" flood-opacity=".15"/>
      <feComposite in2="e" operator="in"/>
      <feComposite in="SourceGraphic"/>
    </filter>
    <filter id="f" data-name="drop-shadow-3" filterUnits="userSpaceOnUse">
      <feOffset dx="0" dy="7"/>
      <feGaussianBlur result="g" stdDeviation="5"/>
      <feFlood flood-color="#000" flood-opacity=".15"/>
      <feComposite in2="g" operator="in"/>
      <feComposite in="SourceGraphic"/>
    </filter>
  </defs>
  <g style="filter: url(#b);">
    <g>
      <path d="M44,194.5c-1.09,0-2.18-.24-3.2-.72-2.21-1.04-3.78-3.1-4.19-5.51-5.26-30.53-.78-59.43,12.62-82.39l-25.6-13.19c-4.87-2.41-6.77-7.94-4.41-12.91,1.63-3.44,4.93-5.58,8.62-5.58,1.49,0,2.97,.34,4.39,1.02,.04,.02,28.31,14.15,28.31,14.15,7.78-10.16,20.94-22.52,33.15-28.81,10.8-5.57,28.35-12.15,42.82-14.97V17c0-5.15,4.35-9.5,9.5-9.5s9.5,4.35,9.5,9.5v27.91c27.79,2.21,51.83,11.97,77.04,31.12,2,1.52,3.11,3.95,2.95,6.46-.17,2.51-1.58,4.77-3.77,6.02L47.72,193.51c-1.15,.66-2.43,.99-3.72,.99Z" style="fill: #3ddc84;"/>
      <path d="M146,15c1,0,2,1,2,2V52c31,1,55,11,80,30L44,187c-5-29-1-60,16-84l-33-17c-1.26-.6-1.6-1.74-1-3,.41-.86,1.06-1.29,1.84-1.29,.37,0,.76,.1,1.16,.29l34,17c6-10,21-25,34.12-31.77,13.04-6.73,33.38-13.69,46.88-15.23V17c0-1,1-2,2-2m0-15c-9.21,0-17,7.79-17,17v22.57c-13.76,3.37-28.7,9.15-38.76,14.33-11.39,5.88-23.26,16.29-31.73,26.09l-22.81-11.4c-.08-.04-.17-.08-.25-.12-2.43-1.16-5-1.75-7.62-1.75-6.61,0-12.51,3.78-15.4,9.87-4.09,8.63-.66,18.58,7.8,22.81l18.78,9.67c-11.37,23.22-14.86,51.18-9.81,80.48,.83,4.82,3.96,8.93,8.38,11.02,2.03,.96,4.22,1.43,6.4,1.43,2.57,0,5.14-.66,7.43-1.97L235.44,95.03c4.37-2.5,7.2-7.02,7.53-12.04,.33-5.02-1.88-9.88-5.89-12.93-24.33-18.49-47.68-28.63-74.08-31.93V17c0-9.21-7.79-17-17-17h0Z" style="fill: #fff;"/>
    </g>
    <g>
      <path d="M136.49,356.82c-2.59,0-5.11-1.34-6.5-3.75L44.04,204.19c-.99-1.72-1.26-3.77-.75-5.69,.52-1.92,1.77-3.56,3.49-4.55L232.38,86.79c1.18-.68,2.47-1.01,3.74-1.01,2.59,0,5.11,1.35,6.5,3.75l85.95,148.87c.99,1.72,1.26,3.77,.75,5.69-.51,1.92-1.77,3.56-3.49,4.55l-185.6,107.16c-1.18,.68-2.47,1.01-3.74,1.01Z" style="fill: #3ddc84;"/>
      <path d="M236.13,93.28l85.95,148.87-185.6,107.16L50.53,200.44,236.13,93.28m0-15c-2.61,0-5.2,.68-7.5,2.01L43.03,187.45c-7.17,4.14-9.63,13.32-5.49,20.49l85.95,148.87c1.99,3.45,5.27,5.96,9.11,6.99,1.28,.34,2.58,.51,3.88,.51,2.61,0,5.2-.68,7.5-2.01l185.6-107.16c7.17-4.14,9.63-13.32,5.49-20.49L249.12,85.78c-1.99-3.45-5.27-5.96-9.11-6.99-1.28-.34-2.58-.51-3.88-.51h0Z" style="fill: #fff;"/>
    </g>
    <circle cx="79.48" cy="131.48" r="12.66" style="fill: #fff;"/>
    <circle cx="158.83" cy="85.81" r="12.66" style="fill: #fff;"/>
  </g>
  <g style="filter: url(#d);">
    <g>
      <path d="M220.06,455.5c-98.29-.02-178.26-78.74-178.27-175.49,0-96.76,79.97-175.5,178.27-175.51,.22,0,.43,0,.64,.03,98.03,.35,177.67,78.93,177.69,175.48-.02,96.77-80,175.49-178.3,175.49h-.03Z" style="fill: #4285f4;"/>
      <path d="M220.06,112v.03h.03c94.32,0,170.79,75.21,170.8,167.99-.01,92.79-76.48,167.99-170.8,167.99h-.03c-94.31-.01-170.76-75.22-170.78-167.99,0-92.78,76.45-168,170.78-168.01m0-15h0c-25.04,0-49.35,4.84-72.24,14.36-22.12,9.2-41.98,22.38-59.04,39.16-17.08,16.8-30.49,36.37-39.86,58.17-9.71,22.59-14.64,46.59-14.64,71.32,0,24.73,4.93,48.72,14.65,71.31,9.37,21.8,22.78,41.36,39.86,58.16,17.06,16.78,36.92,29.95,59.04,39.16,22.89,9.52,47.19,14.36,72.23,14.36,25.07,0,49.38-4.83,72.27-14.35,22.12-9.2,41.98-22.37,59.04-39.15,17.08-16.8,30.49-36.37,39.87-58.16,9.72-22.59,14.65-46.59,14.65-71.32,0-24.73-4.93-48.73-14.65-71.32-9.38-21.8-22.79-41.37-39.87-58.16-17.06-16.78-36.93-29.95-59.04-39.15-22.62-9.41-46.62-14.24-71.34-14.35-.31-.02-.61-.03-.92-.03h0Z" style="fill: #fff;"/>
    </g>
    <g>
      <ellipse cx="389" cy="109.91" rx="58.25" ry="57.41" style="fill: #4285f4;"/>
      <path d="M389,60c28.03,0,50.75,22.35,50.75,49.91s-22.72,49.91-50.75,49.91-50.75-22.35-50.75-49.91,22.72-49.91,50.75-49.91m0-15c-36.25,0-65.75,29.12-65.75,64.91s29.49,64.91,65.75,64.91,65.75-29.12,65.75-64.91-29.49-64.91-65.75-64.91h0Z" style="fill: #fff;"/>
    </g>
    <ellipse cx="288.5" cy="209" rx="49.26" ry="50" style="fill: #fff;"/>
    <g>
      <path d="M104.74,248.17h16.05v95.4h52.8v14.4H104.74v-109.8Z" style="fill: #fff;"/>
      <path d="M235.69,280.12h15.45v77.85h-13.65c-.2-5-.55-9.2-1.05-12.6-2.5,4.8-5.95,8.38-10.35,10.72-4.4,2.35-9.3,3.53-14.7,3.53-8.4,0-15.1-2.75-20.1-8.25-5-5.5-7.5-13.45-7.5-23.85v-47.4h15.3v42.9c0,7.1,1.35,12.63,4.05,16.58,2.7,3.95,6.8,5.92,12.3,5.92s10.37-2,14.33-6c3.95-4,5.92-9.65,5.92-16.95v-42.45Z" style="fill: #fff;"/>
      <path d="M326.67,286.57c5.75,5.5,8.62,13.4,8.62,23.7v47.7h-13.35c-.2-4.5-.45-7.7-.75-9.6-4.8,7.5-12.5,11.25-23.1,11.25-5.2,0-9.97-.95-14.32-2.85-4.35-1.9-7.83-4.65-10.43-8.25-2.6-3.6-3.9-7.95-3.9-13.05,0-7.7,3.15-13.8,9.45-18.3,6.3-4.5,14.35-6.75,24.15-6.75,5.5,0,11.15,.75,16.95,2.25v-.3c0-7.1-1.4-12.32-4.2-15.68-2.8-3.35-7-5.02-12.6-5.02-4.5,0-8.28,.97-11.33,2.92-3.05,1.95-5.62,4.78-7.72,8.47l-11.4-6.6c2.5-5.5,6.55-9.9,12.15-13.2,5.6-3.3,12-4.95,19.2-4.95,9.3,0,16.82,2.75,22.58,8.25Zm-6.67,37.8c-6-1.5-11.25-2.25-15.75-2.25-6,0-10.65,1.15-13.95,3.45-3.3,2.3-4.95,5.5-4.95,9.6,0,3.7,1.35,6.63,4.05,8.77,2.7,2.15,6.25,3.23,10.65,3.23,5.5,0,10.2-1.58,14.1-4.73,3.9-3.15,5.85-7.52,5.85-13.12v-4.95Z" style="fill: #fff;"/>
    </g>
  </g>
  <g style="filter: url(#f);">
    <g>
      <path d="M341.96,220.43c-11.16,0-21.42-6.24-27.45-16.68l-50.01-87.01c-10.42-18.04-1.73-34.02,10.75-41.23,5.14-2.97,10.88-4.53,16.62-4.53,10.68,0,20.02,5.57,25.63,15.28l49.99,85.98c10.19,17.64,2.36,36.71-10.73,44.26-4.46,2.57-9.58,3.94-14.79,3.94Z" style="fill: #3ddc84;"/>
      <path d="M291.87,78.47c7.14,0,14.37,3.27,19.13,11.53l50,86c7.8,13.5,1.84,28.32-8,34-3.31,1.91-7.13,2.93-11.04,2.93-7.72,0-15.78-3.97-20.96-12.93l-50-87c-7.79-13.5-1.83-25.32,8-31,3.82-2.21,8.33-3.53,12.87-3.53m0-15h0c-7.05,0-14.09,1.92-20.37,5.54-8.38,4.84-14.55,12.27-17.37,20.91-3.21,9.83-1.83,20.69,3.88,30.58l49.99,86.97c7.4,12.82,20.09,20.46,33.96,20.46,6.53,0,12.94-1.71,18.54-4.94,8.36-4.82,14.75-13.18,17.53-22.93,3.03-10.59,1.59-21.8-4.04-31.56l-50.02-86.04c-6.96-12.05-18.67-18.99-32.1-18.99h0Z" style="fill: #fff;"/>
    </g>
    <g>
      <path d="M89.52,365.47c-11.16,0-21.42-6.24-27.45-16.68L12.06,261.78c-5.93-10.27-5.03-18.99-3.24-24.49,2.24-6.88,7.21-12.82,13.99-16.74,5.14-2.97,10.88-4.53,16.62-4.53,10.68,0,20.02,5.57,25.63,15.28l49.99,85.98c4.62,8,5.8,17.15,3.34,25.76-2.26,7.9-7.39,14.64-14.07,18.5-4.46,2.58-9.58,3.94-14.79,3.94Z" style="fill: #3ddc84;"/>
      <path d="M39.43,223.51c7.14,0,14.37,3.27,19.13,11.53l50,86c7.8,13.5,1.84,28.32-8,34-3.31,1.91-7.13,2.93-11.04,2.93-7.72,0-15.78-3.97-20.96-12.93l-50-87c-7.79-13.5-1.83-25.32,8-31,3.82-2.21,8.33-3.53,12.87-3.53m0-15h0c-7.05,0-14.09,1.92-20.37,5.54-8.38,4.84-14.55,12.27-17.37,20.91-3.21,9.83-1.83,20.7,3.88,30.58l49.99,86.97c7.4,12.82,20.09,20.46,33.96,20.46,6.53,0,12.94-1.71,18.54-4.94,8.36-4.82,14.75-13.18,17.53-22.93,3.03-10.59,1.59-21.8-4.04-31.56l-50.02-86.04c-6.96-12.05-18.67-18.99-32.1-18.99h0Z" style="fill: #fff;"/>
    </g>
  </g>
</svg>