<?xml version="1.0" encoding="UTF-8"?>
<svg id="a" data-name="图层 1" xmlns="http://www.w3.org/2000/svg" viewBox="0 0 512 512">
  <g>
    <g style="opacity: .1;">
      <ellipse cx="208.38" cy="154.28" rx="8.8" ry="8.84"/>
      <ellipse cx="153.25" cy="186.16" rx="8.8" ry="8.84"/>
      <path d="M309.3,288.69c-5,0-9.45,1.15-13.34,3.46-3.89,2.3-6.71,5.38-8.44,9.22l7.92,4.61c1.46-2.58,3.25-4.56,5.37-5.92,2.12-1.36,4.74-2.04,7.87-2.04,3.89,0,6.81,1.17,8.75,3.51,1.94,2.34,2.92,5.99,2.92,10.94v.21c-4.03-1.05-7.96-1.57-11.78-1.57-6.81,0-12.4,1.57-16.78,4.71-4.38,3.14-6.57,7.4-6.57,12.78,0,3.56,.9,6.6,2.71,9.11,1.81,2.51,4.22,4.43,7.24,5.76,3.02,1.33,6.34,1.99,9.95,1.99,7.36,0,12.71-2.62,16.05-7.86,.21,1.33,.38,3.56,.52,6.7h9.27v-33.3c0-7.19-2-12.71-5.99-16.55-4-3.84-9.22-5.76-15.68-5.76Zm11.05,35.61c0,3.91-1.35,6.96-4.06,9.16-2.71,2.2-5.98,3.3-9.8,3.3-3.06,0-5.52-.75-7.4-2.25-1.88-1.5-2.81-3.54-2.81-6.13,0-2.86,1.15-5.1,3.44-6.7,2.29-1.61,5.52-2.41,9.69-2.41,3.13,0,6.77,.52,10.94,1.57v3.46Z"/>
      <path d="M411.54,171.11c0-23.63-19.4-42.85-43.26-42.85-20.66,0-37.97,14.42-42.24,33.63l-5.03-8.69c-4.39-7.65-11.77-12.04-20.22-12.04h0c-4.48,0-8.96,1.23-12.95,3.54-7.54,4.37-12.87,12.72-11.9,22.32-.12-.02-.24-.05-.37-.07l-6.57-11.43c-1.01-1.76-2.66-3.06-4.6-3.66,.08-2.57-1.08-5.03-3.13-6.59-17.19-13.13-33.64-20.1-52.43-22.06v-16.96c0-5.09-4.3-9.4-9.39-9.4h0s0,0,0,0c-2.44,0-4.86,1.02-6.63,2.79-1.76,1.76-2.76,4.17-2.76,6.6v17.72c-9.84,2.2-20.94,6.46-28.25,10.25-8.22,4.26-16.81,12.06-22.53,19.07l-17.52-8.81s-.09-.04-.13-.07c-1.37-.65-2.8-.99-4.26-.99-3.66,0-6.92,2.1-8.52,5.49-2.29,4.86-.43,10.27,4.32,12.65l15.24,7.89c-8.54,16.15-11.28,35.99-7.7,56.84,.44,2.57,2.11,4.77,4.48,5.89,.07,.03,.14,.06,.22,.09-.52,1.97-.3,4.14,.79,6.04l2.5,4.35c-1.07-.15-2.16-.23-3.28-.23h0c-4.48,0-8.96,1.23-12.95,3.54-10.13,5.88-16.29,18.95-8.48,32.55l24.13,42.2c5.53,21.68,16.88,41.56,33.28,57.78,23.91,23.64,55.7,36.66,89.51,36.67,33.83,0,65.62-13.02,89.54-36.66,23.94-23.67,37.13-55.14,37.14-88.63,0-23.24-6.37-45.52-18.27-64.88-.21-3.85-1.32-7.83-3.56-11.73l-.81-1.4c4.2,1.35,8.68,2.09,13.33,2.09,23.85,0,43.26-19.22,43.26-42.85Zm-119.67-19.49c2.65-1.54,5.79-2.46,8.94-2.46,4.96,0,9.98,2.29,13.29,8.05l11.31,19.56c.77,5.77,2.71,11.19,5.57,16.01-13.77-11.15-29.56-19.18-46.5-23.76-2.23-7.61,1.6-14.04,7.38-17.39Zm-30.08,138.33v8.32l-25.43,14.75v-23.07h-10.63v29.24l-25.96,15.06h-9.21l-7.33-12.76c-.32-1.26-.74-2.52-1.27-3.78v-50.06h-11.15v30.32l-25.16-43.49c-1.12-1.95-2.43-3.68-3.91-5.19l-1.29-2.25c3.51-8.84,8.08-17.16,13.55-24.81l84.46-49.01c4.1-.42,8.26-.64,12.47-.65v.02h.02c6.67,0,13.21,.55,19.58,1.6l18.67,32.51c-14.39,4.12-24.95,17.6-24.95,33.6,0,19.28,15.32,34.91,34.22,34.91,1.13,0,2.25-.06,3.36-.17l-29.31,17.01v-2.09h-10.73Zm0,17.57v12.07c0,5.1-1.37,9.04-4.12,11.83-2.75,2.79-6.06,4.19-9.95,4.19s-6.67-1.38-8.54-4.14c-1.57-2.31-2.48-5.4-2.73-9.26l25.34-14.71Zm-126.11,10.28c-2.21-8.95-3.39-18.3-3.4-27.92,0-11.39,1.65-22.39,4.71-32.81l33.82,58.87v24.07c-.89,.88-1.86,1.65-2.91,2.25-2.3,1.33-4.95,2.05-7.67,2.05-5.36,0-10.97-2.77-14.56-9.03l-10-17.48Zm-2.53-83.48l6.01-3.49c-1.33,2.45-2.56,4.94-3.72,7.47l-2.29-3.99Zm49.47-40.36c5.7-3.98,11.77-7.46,18.15-10.41l-18.15,10.41Zm122.43,12.08l-15.49-27.09c25.71,8.75,47.43,25.98,61.72,48.32-.31,5.93-3.58,11.17-8,13.73-2.3,1.33-4.95,2.05-7.67,2.05-1,0-2.01-.1-3.01-.29,.06-.81,.09-1.63,.09-2.45,0-16.98-11.89-31.13-27.64-34.26Zm-42.96-46.53l3.39,5.9c-4.03-.45-8.1-.71-12.2-.79l8.81-5.11Zm-122.36,6.78l-22.93-11.87c-.88-.42-1.11-1.21-.69-2.09,.28-.6,.74-.9,1.28-.9,.25,0,.53,.07,.81,.2l23.62,11.87c4.17-6.98,14.59-17.46,23.7-22.18,9.06-4.7,23.19-9.56,32.57-10.64v-24.44c0-.7,.69-1.4,1.39-1.4,.69,0,1.39,.7,1.39,1.4v24.44c21.54,.7,38.21,7.68,55.58,20.95l-25.2,14.45c-26.34,4.05-50.63,16.18-69.83,35.17-3.29,3.25-6.36,6.65-9.23,10.18l-23.56,13.51c-3.47-20.25-.69-41.89,11.12-58.65Zm-28.79,108.25c-5.41-9.42-1.27-17.68,5.56-21.64,2.65-1.54,5.79-2.46,8.94-2.46,1.67,0,3.34,.27,4.96,.83-4.02,12.31-6.11,25.31-6.11,38.62,0,2.85,.1,5.69,.29,8.51l-13.64-23.85Zm140,132.63h-.02c-43.63,0-81.75-23.29-102.36-57.98,3.54,2.01,7.52,3.12,11.67,3.12s8.16-1.08,11.69-3.13c2.16-1.25,4.14-2.91,5.84-4.87h9.88c.91,.78,1.98,1.37,3.15,1.68,.68,.18,1.38,.27,2.07,.27,1.4,0,2.78-.37,4.02-1.08l1.51-.87h20.26v-10.05h-2.93l10.36-6.01c.66,4.77,2.28,8.59,4.87,11.46,3.47,3.84,8.13,5.76,13.96,5.76,3.75,0,7.15-.82,10.21-2.46,3.06-1.64,5.45-4.14,7.19-7.49,.35,2.38,.59,5.31,.73,8.8h9.48v-43.02l53.3-30.93c3.81-2.21,5.12-7.09,2.92-10.9l-.81-1.4c1.35-2.32,2.45-4.82,3.24-7.45,1.45,.28,2.93,.43,4.43,.43,4.12,0,8.16-1.08,11.69-3.13,4.08-2.37,7.51-6.17,9.66-10.75,8.08,15.85,12.64,33.76,12.65,52.72-.01,64.78-53.13,117.29-118.66,117.29Zm82.23-232.96c-.09-1.02-.15-2.05-.15-3.1,0-19.25,15.78-34.85,35.26-34.85s35.26,15.6,35.26,34.85-15.78,34.85-35.26,34.85c-7.65,0-14.73-2.42-20.51-6.51l-14.6-25.24Z"/>
    </g>
    <ellipse cx="368.28" cy="171.11" rx="35.26" ry="34.85"/>
    <g>
      <path d="M137.23,256.26s0,0,0,0c-.11,.38-.23,.76-.34,1.14-.14,.5-.28,.99-.42,1.49-.11,.4-.22,.81-.33,1.21-.13,.48-.25,.97-.37,1.46-.11,.43-.21,.85-.32,1.28-.11,.48-.22,.95-.33,1.43-.1,.44-.2,.88-.29,1.33-.1,.47-.2,.95-.29,1.42-.09,.46-.18,.91-.27,1.37-.09,.47-.17,.93-.25,1.4-.08,.47-.16,.95-.24,1.42-.07,.46-.15,.92-.22,1.38-.07,.49-.14,.98-.21,1.47-.06,.45-.12,.9-.18,1.35-.06,.51-.12,1.02-.18,1.53-.05,.44-.1,.88-.14,1.32-.05,.53-.1,1.07-.14,1.6-.04,.42-.07,.84-.11,1.27-.04,.57-.08,1.14-.11,1.71-.02,.39-.05,.79-.07,1.18-.03,.64-.05,1.29-.07,1.93-.01,.33-.03,.65-.04,.98-.02,.97-.04,1.95-.04,2.93,0,9.62,1.18,18.97,3.4,27.92l10,17.48c3.59,6.26,9.2,9.03,14.56,9.03,2.72,0,5.37-.71,7.67-2.05,1.04-.61,2.01-1.37,2.91-2.25v-26.07l-32.08-55.46c-.46-.81-.96-1.54-1.49-2.22Z"/>
      <path d="M133.14,234.31l2.29,3.99c1.15-2.53,2.39-5.02,3.72-7.47l-6.01,3.49Z"/>
      <path d="M299.71,321.68c-2.29,1.61-3.44,3.84-3.44,6.7,0,2.58,.94,4.63,2.81,6.13,1.88,1.5,4.34,2.25,7.4,2.25,3.82,0,7.09-1.1,9.8-3.3,2.71-2.2,4.06-5.25,4.06-9.16v-3.46c-4.17-1.05-7.82-1.57-10.94-1.57-4.17,0-7.4,.8-9.69,2.41Z"/>
      <path d="M265.47,165.4l-3.39-5.9-8.81,5.11c4.1,.07,8.17,.33,12.2,.79Z"/>
      <path d="M250.92,407.16c.49,0,.97-.01,1.46-.02,.54,0,1.08,0,1.61-.02,.55-.01,1.09-.04,1.64-.06,.47-.02,.93-.03,1.4-.05,.57-.03,1.14-.07,1.7-.11,.44-.03,.88-.05,1.32-.08,.69-.05,1.37-.12,2.06-.18,.31-.03,.63-.05,.94-.08,.73-.07,1.46-.16,2.18-.25,.27-.03,.53-.06,.8-.09,.77-.1,1.55-.21,2.32-.32,.21-.03,.43-.06,.64-.09,56.96-8.6,100.59-57.23,100.6-115.94,0-.02,0-.03,0-.05,0-.95-.01-1.89-.04-2.84,0-.32-.02-.63-.03-.95-.02-.64-.04-1.28-.07-1.92-.02-.38-.04-.75-.06-1.12-.03-.58-.07-1.15-.11-1.73-.03-.4-.06-.79-.1-1.19-.05-.55-.09-1.1-.15-1.65-.04-.4-.08-.8-.12-1.2-.06-.55-.12-1.09-.19-1.63-.05-.4-.1-.79-.15-1.19-.07-.55-.15-1.09-.23-1.63-.06-.39-.11-.77-.17-1.16-.09-.56-.19-1.12-.28-1.69-.06-.36-.12-.72-.19-1.08-.11-.62-.24-1.24-.36-1.86-.06-.29-.11-.59-.17-.88-.19-.9-.39-1.81-.6-2.7-.03-.14-.07-.28-.1-.42-.18-.76-.37-1.52-.56-2.27-.08-.32-.17-.64-.26-.96-.15-.57-.31-1.14-.47-1.7-.1-.36-.21-.73-.32-1.09-.15-.52-.31-1.03-.47-1.55-.12-.38-.24-.76-.36-1.14-.16-.49-.32-.99-.49-1.48-.13-.38-.26-.77-.39-1.15-.17-.48-.34-.96-.51-1.44-.14-.38-.28-.77-.42-1.15-.18-.48-.37-.96-.55-1.44-.15-.37-.29-.75-.44-1.12-.2-.49-.4-.97-.6-1.46-.15-.36-.3-.71-.45-1.07-.22-.52-.46-1.04-.69-1.56-.14-.31-.27-.62-.42-.93-.37-.8-.75-1.6-1.13-2.39-.15-.3-.3-.6-.45-.9-.17-.35-.35-.7-.53-1.05-2.15,4.58-5.58,8.39-9.66,10.75-3.53,2.05-7.57,3.13-11.69,3.13-1.5,0-2.98-.15-4.43-.43-4.31,14.25-17.32,24.6-32.71,24.6-18.9,0-34.22-15.63-34.22-34.91,0-18.27,13.77-33.26,31.3-34.77l-16.16-28.27c-.28-.48-.53-.97-.78-1.45-2.65-.63-5.34-1.17-8.06-1.61-6.38-1.05-12.92-1.6-19.6-1.6h-.02v-.02c-4.21,0-8.37,.22-12.47,.65h0c-1.61,.17-3.22,.37-4.81,.6-.08,.01-.16,.02-.24,.03-1.55,.23-3.09,.49-4.62,.77-.15,.03-.29,.06-.44,.08-4.76,.91-9.42,2.1-13.97,3.55-.06,.02-.12,.04-.17,.06-4.61,1.48-9.1,3.24-13.44,5.24-6.38,2.95-12.45,6.43-18.15,10.41h0c-1.34,.93-2.65,1.89-3.94,2.88-.09,.07-.17,.13-.26,.2-1.26,.96-2.5,1.95-3.72,2.96-.09,.08-.18,.15-.28,.23-1.23,1.03-2.45,2.08-3.64,3.16-.03,.03-.06,.05-.08,.08-2.43,2.21-4.77,4.52-7.01,6.92-.06,.06-.12,.13-.18,.19-1.07,1.15-2.11,2.32-3.13,3.52-.1,.12-.2,.24-.3,.35-1.01,1.18-1.99,2.39-2.95,3.61-.08,.11-.16,.21-.25,.32-.98,1.26-1.95,2.55-2.88,3.85-5.47,7.64-10.04,15.96-13.55,24.81h0c-.1,.26-.2,.52-.3,.78,2.13,1.81,3.99,4.04,5.5,6.66l25.16,43.49v-30.32h11.15v50.06c2.38,5.68,2.54,11.43,1.15,16.55h35.53v10.05h-40.88c-1.7,1.96-3.68,3.62-5.84,4.87-3.53,2.05-7.57,3.13-11.69,3.13s-8.12-1.1-11.67-3.12c20.61,34.68,58.73,57.97,102.36,57.98Zm66.51-105.64c-1.95-2.34-4.86-3.51-8.75-3.51-3.13,0-5.75,.68-7.87,2.04-2.12,1.36-3.91,3.33-5.37,5.92l-7.92-4.61c1.74-3.84,4.55-6.91,8.44-9.22,3.89-2.3,8.34-3.46,13.34-3.46,6.46,0,11.69,1.92,15.68,5.76,3.99,3.84,5.99,9.36,5.99,16.55v33.3h-9.27c-.14-3.14-.31-5.38-.52-6.7-3.33,5.24-8.68,7.86-16.05,7.86-3.61,0-6.93-.67-9.95-1.99-3.02-1.33-5.44-3.25-7.24-5.76-1.81-2.51-2.71-5.55-2.71-9.11,0-5.38,2.19-9.63,6.57-12.78,4.38-3.14,9.97-4.71,16.78-4.71,3.82,0,7.75,.52,11.78,1.57v-.21c0-4.96-.97-8.6-2.92-10.94Zm-91.7-11.57h10.63v29.95c0,4.96,.94,8.82,2.81,11.57,1.88,2.76,4.72,4.14,8.54,4.14s7.21-1.4,9.95-4.19c2.74-2.79,4.12-6.74,4.12-11.83v-29.64h10.73v54.36h-9.48c-.14-3.49-.38-6.42-.73-8.8-1.74,3.35-4.13,5.85-7.19,7.49-3.06,1.64-6.46,2.46-10.21,2.46-5.84,0-10.49-1.92-13.96-5.76-3.47-3.84-5.21-9.39-5.21-16.65v-33.09Z"/>
      <path d="M116.8,154.41l22.93,11.87c-11.81,16.76-14.59,38.4-11.12,58.65l23.56-13.51c2.87-3.53,5.95-6.93,9.23-10.18,19.21-18.99,43.5-31.13,69.83-35.17l25.2-14.45c-17.37-13.27-34.04-20.25-55.58-20.95v-24.44c0-.7-.69-1.4-1.39-1.4-.69,0-1.39,.7-1.39,1.4v24.44c-9.38,1.07-23.51,5.94-32.57,10.64-9.11,4.73-19.54,15.2-23.7,22.18l-23.62-11.87c-.87-.42-1.67-.18-2.08,.7s-.18,1.67,.69,2.09Zm91.58-8.97c4.86,0,8.8,3.96,8.8,8.84s-3.94,8.84-8.8,8.84-8.8-3.96-8.8-8.84,3.94-8.84,8.8-8.84Zm-55.12,31.89c4.86,0,8.8,3.96,8.8,8.84s-3.94,8.84-8.8,8.84-8.8-3.96-8.8-8.84,3.94-8.84,8.8-8.84Z"/>
      <path d="M335.6,243.04c2.72,0,5.37-.71,7.67-2.05,4.42-2.56,7.69-7.8,8-13.73-.23-.36-.46-.72-.7-1.08-.23-.35-.46-.7-.7-1.04-.27-.4-.54-.8-.81-1.2-.23-.33-.45-.65-.68-.97-.29-.41-.58-.82-.87-1.23-.2-.28-.41-.55-.61-.82-1.19-1.61-2.41-3.19-3.68-4.74-.17-.21-.34-.42-.51-.63-.37-.44-.74-.88-1.11-1.31-.2-.24-.41-.48-.61-.71-.37-.43-.75-.85-1.12-1.27-.21-.24-.43-.48-.64-.71-.38-.42-.77-.84-1.15-1.25-.21-.23-.43-.46-.64-.68-.4-.42-.8-.83-1.2-1.25-.21-.21-.42-.42-.62-.63-.42-.42-.84-.84-1.27-1.26-.19-.18-.37-.36-.56-.54-.46-.44-.91-.88-1.38-1.31-.13-.12-.26-.24-.39-.36-2.94-2.72-6.03-5.3-9.24-7.72-.09-.07-.18-.14-.27-.21-.58-.43-1.16-.86-1.74-1.28-.13-.09-.26-.19-.39-.28-.58-.41-1.16-.82-1.74-1.22-.13-.09-.26-.18-.4-.27-.59-.41-1.19-.81-1.79-1.2-.11-.08-.23-.15-.35-.22-.63-.41-1.26-.81-1.9-1.21-.06-.04-.13-.08-.19-.12-5.02-3.12-10.28-5.87-15.77-8.23-.03-.01-.05-.02-.08-.03-.76-.33-1.53-.65-2.3-.96-.04-.02-.08-.03-.12-.05-.78-.31-1.56-.62-2.35-.92-.01,0-.02,0-.03-.01-1.25-.47-2.51-.92-3.78-1.35l15.48,27.08c15.75,3.13,27.64,17.28,27.64,34.26,0,.82-.04,1.64-.09,2.45,1,.2,2.01,.29,3.01,.29Z"/>
    </g>
    <g>
      <path d="M348.83,217.25l-34.74-60.05c-5.41-9.42-15.4-9.55-22.23-5.59-6.83,3.96-10.97,12.22-5.56,21.64l34.74,60.74c5.42,9.43,15.4,10.95,22.23,6.98,6.83-3.97,10.97-14.31,5.56-23.74Z"/>
      <path d="M138.72,258.47c-5.41-9.42-15.4-9.55-22.23-5.59-6.83,3.96-10.97,12.22-5.56,21.64l34.74,60.74c5.42,9.43,15.4,10.95,22.23,6.98,6.83-3.97,10.97-14.31,5.56-23.74l-34.74-60.05Z"/>
    </g>
  </g>
  <g>
    <path d="M120.53,428.48c-20.11,0-35.68-6.02-46.72-18.05-11.04-12.03-16.56-28.85-16.56-50.45,0-10.37,1.29-20.61,3.89-30.73,2.59-10.12,3.89-20.61,3.89-31.47,0-7.03-2.56-12.56-7.68-16.57-5.12-4.01-11.41-6.82-18.87-8.42-7.46-1.6-14.77-2.41-21.92-2.41v-27.77c5.18,0,10.57-.58,16.19-1.76,5.61-1.17,10.88-2.93,15.82-5.28,4.93-2.34,8.91-5.24,11.93-8.7,3.02-3.45,4.53-7.34,4.53-11.66,0-11.35-1.3-21.97-3.89-31.84-2.59-9.87-3.89-19.99-3.89-30.36,0-20.85,5.52-36.93,16.56-48.22,11.04-11.29,26.61-16.94,46.72-16.94,6.91,0,12.64,.34,17.21,1.02,4.56,.68,8.82,1.57,12.77,2.68l-3.89,26.1c-4.19-.62-8.2-1.11-12.03-1.48-3.82-.37-7.4-.56-10.73-.56-11.35,0-19.98,3.27-25.9,9.81-5.92,6.54-8.88,15.74-8.88,27.58,0,10.74,1.42,20.98,4.26,30.73,2.84,9.75,4.26,19.99,4.26,30.73,0,12.47-4.26,22.12-12.77,28.97-8.51,6.85-20.42,10.4-35.71,10.64v4.81c15.29,.25,27.2,3.92,35.71,11.01,8.51,7.1,12.77,16.63,12.77,28.6,0,11.23-1.42,21.72-4.26,31.47-2.84,9.75-4.26,19.75-4.26,29.99,0,12.96,2.96,22.99,8.88,30.08s14.55,10.64,25.9,10.64c3.33,0,6.91-.22,10.73-.65,3.82-.43,7.83-.9,12.03-1.39l3.89,26.1c-3.95,1.11-8.2,2-12.77,2.68-4.56,.68-10.3,1.02-17.21,1.02Z"/>
    <path d="M391.48,428.48c-6.79,0-12.52-.34-17.21-1.02-4.69-.68-8.94-1.57-12.77-2.68l3.7-26.1c4.19,.62,8.23,1.11,12.12,1.48,3.89,.37,7.49,.55,10.82,.55,11.22,0,19.8-3.55,25.72-10.64,5.92-7.1,8.88-17.12,8.88-30.08,0-10.24-1.42-20.24-4.25-29.99-2.84-9.75-4.26-20.24-4.26-31.47,0-11.97,4.26-21.5,12.77-28.6,8.51-7.09,20.41-10.77,35.71-11.01v-4.81c-15.29-.25-27.2-3.79-35.71-10.64-8.51-6.85-12.77-16.5-12.77-28.97,0-10.74,1.42-20.98,4.26-30.73,2.84-9.75,4.25-19.99,4.25-30.73,0-11.85-2.96-21.04-8.88-27.58-5.92-6.54-14.49-9.81-25.72-9.81-3.33,0-6.94,.19-10.82,.56-3.88,.37-7.93,.86-12.12,1.48l-3.7-26.1c3.82-1.11,8.08-2,12.77-2.68,4.69-.68,10.42-1.02,17.21-1.02,20.1,0,35.67,5.65,46.71,16.94,11.04,11.29,16.56,27.37,16.56,48.22,0,10.37-1.3,20.49-3.89,30.36-2.59,9.88-3.89,20.49-3.89,31.84,0,4.32,1.51,8.21,4.53,11.66,3.02,3.46,6.97,6.36,11.84,8.7,4.87,2.35,10.14,4.1,15.82,5.28,5.67,1.17,11.1,1.76,16.28,1.76v27.77c-7.28,0-14.65,.8-22.11,2.41-7.46,1.61-13.72,4.41-18.78,8.42-5.06,4.01-7.59,9.53-7.59,16.57,0,10.86,1.3,21.35,3.89,31.47,2.59,10.12,3.89,20.36,3.89,30.73,0,21.6-5.52,38.41-16.56,50.45-11.04,12.03-26.61,18.05-46.71,18.05Z"/>
  </g>
</svg>