<?xml version="1.0" standalone="no"?>
<!DOCTYPE svg PUBLIC "-//W3C//DTD SVG 20010904//EN"
 "http://www.w3.org/TR/2001/REC-SVG-20010904/DTD/svg10.dtd">
<svg version="1.0" xmlns="http://www.w3.org/2000/svg"
 width="700.000000pt" height="700.000000pt" viewBox="0 0 700.000000 700.000000"
 preserveAspectRatio="xMidYMid meet">
<metadata>
Created by potrace 1.14, written by Peter Selinger 2001-2017
</metadata>
<g transform="translate(0.000000,700.000000) scale(0.100000,-0.100000)"
fill="#000000" stroke="none">
<path d="M1528 5795 c-1 -2 -28 -6 -58 -9 -183 -20 -375 -118 -492 -253 -78
-91 -157 -262 -174 -380 -3 -27 -8 -57 -11 -68 -8 -40 -10 -262 -2 -330 10
-92 18 -145 23 -170 3 -11 16 -69 30 -130 31 -140 40 -213 41 -350 0 -94 -3
-116 -22 -151 -74 -142 -304 -249 -574 -268 -25 -1 -50 -5 -55 -8 -7 -5 -11
-266 -5 -359 1 -12 11 -17 40 -17 227 -3 440 -71 541 -172 62 -62 80 -123 75
-265 -5 -146 -10 -189 -42 -330 -13 -60 -26 -119 -29 -130 -26 -119 -36 -355
-22 -495 31 -283 152 -501 353 -634 91 -61 221 -108 345 -124 118 -15 364 -6
465 18 72 17 79 18 93 19 8 1 11 10 7 24 -2 12 -7 40 -10 62 -3 22 -10 67 -15
100 -19 128 -23 150 -23 163 0 12 -19 12 -127 -3 -19 -3 -81 -7 -137 -9 -262
-11 -406 80 -491 309 -11 28 -18 61 -28 130 -6 45 -5 213 1 265 13 97 27 169
50 255 23 85 36 154 51 255 14 100 6 272 -15 341 -73 231 -301 372 -613 378
-24 1 -28 5 -28 31 0 36 2 37 100 44 41 3 95 11 120 17 25 6 52 12 60 14 45 9
159 65 186 90 6 5 25 21 42 34 41 31 97 114 123 181 51 135 41 371 -26 625
-13 50 -26 101 -29 115 -2 14 -7 41 -10 60 -16 87 -22 271 -11 349 26 190 128
321 295 377 78 26 347 25 456 -2 27 -7 30 -2 38 61 3 28 8 60 10 71 6 32 14
83 21 139 4 28 8 57 11 66 5 17 -33 31 -123 45 -21 3 -42 8 -46 11 -9 6 -353
14 -359 8z"/>
<path d="M5145 5788 c-33 -5 -93 -15 -133 -24 -60 -13 -72 -19 -68 -32 3 -9 7
-35 10 -57 10 -82 19 -150 21 -165 2 -8 6 -39 10 -67 l7 -53 37 6 c20 2 52 7
71 10 19 3 90 7 157 9 187 6 301 -30 390 -122 46 -47 95 -135 109 -193 4 -19
10 -42 12 -50 2 -8 5 -71 7 -140 3 -143 -12 -265 -55 -425 -41 -156 -52 -233
-54 -388 -3 -180 37 -292 139 -392 96 -94 250 -158 415 -171 105 -8 109 -10
107 -44 -2 -25 -7 -30 -27 -31 -206 -6 -382 -71 -493 -182 -107 -108 -147
-223 -141 -414 1 -59 5 -121 8 -138 3 -16 8 -50 11 -75 3 -25 17 -85 30 -135
24 -90 26 -101 49 -230 18 -100 14 -334 -8 -413 -38 -142 -120 -254 -221 -301
-111 -52 -290 -61 -506 -26 l-37 6 -6 -43 c-3 -24 -9 -63 -12 -88 -3 -25 -7
-56 -9 -69 -3 -13 -7 -45 -10 -70 -3 -25 -8 -56 -10 -68 -4 -18 2 -23 43 -32
26 -6 62 -13 81 -16 19 -3 38 -8 42 -11 15 -9 322 -12 384 -4 246 33 417 127
547 300 50 67 117 208 135 285 25 111 35 200 36 320 1 188 -9 277 -51 455 -12
47 -23 101 -26 120 -3 19 -8 49 -11 65 -4 17 -8 91 -10 166 -4 137 -4 137 26
198 54 107 193 190 364 217 22 3 43 8 46 10 3 1 52 6 110 10 57 4 106 8 108
10 3 2 5 87 5 189 1 158 -1 185 -14 186 -250 13 -460 88 -574 205 -60 61 -71
96 -71 214 0 99 11 236 20 263 3 7 6 23 9 37 2 14 13 63 24 110 11 47 23 105
27 130 4 25 9 54 11 65 16 79 9 344 -11 450 -46 245 -193 449 -395 547 -85 42
-170 69 -263 84 -54 10 -328 11 -392 2z"/>
<path d="M2717 5563 c-4 -3 -7 -83 -7 -177 l0 -171 -67 -13 c-98 -18 -265 -77
-363 -128 -120 -62 -261 -185 -321 -281 -8 -13 -18 -23 -22 -23 -5 0 -83 37
-173 83 -135 67 -166 79 -174 67 -5 -8 -7 -17 -4 -21 2 -5 44 -28 92 -52 48
-25 119 -62 159 -83 l72 -37 -25 -41 c-103 -166 -145 -340 -140 -582 2 -83 6
-156 10 -162 9 -15 12 -14 219 106 100 57 202 116 227 130 25 14 88 50 140 80
121 69 123 70 75 30 -22 -18 -71 -62 -110 -98 -51 -48 -122 -95 -260 -175
-104 -60 -207 -119 -228 -132 l-38 -24 19 -27 c10 -15 32 -52 49 -82 17 -30
40 -71 52 -91 l21 -36 -22 -61 -21 -60 -36 28 c-137 110 -357 3 -354 -171 0
-65 -4 -57 216 -440 118 -205 153 -275 178 -355 54 -173 183 -413 284 -529
106 -122 135 -152 208 -213 254 -213 558 -344 886 -379 84 -9 276 -9 361 1
393 46 776 246 1033 540 223 255 354 555 393 901 5 44 5 275 -1 313 -20 147
-31 203 -61 302 -31 102 -99 259 -144 331 -18 29 -34 67 -37 84 -10 69 -29
107 -205 412 -102 175 -213 368 -248 428 -34 61 -74 123 -89 139 -76 83 -209
87 -301 8 -87 -74 -101 -170 -41 -277 18 -31 31 -59 29 -61 -2 -1 -44 8 -93
21 -50 13 -105 26 -123 28 -19 3 -35 7 -37 9 -1 2 -35 60 -75 131 -40 70 -74
127 -76 127 -4 0 -142 -80 -294 -168 -141 -83 -200 -111 -310 -148 -69 -23
-126 -41 -128 -39 -1 1 153 91 343 200 190 109 345 201 345 204 0 8 -173 121
-235 154 -134 69 -337 124 -470 126 l-50 1 1 170 c1 120 -3 173 -11 180 -7 5
-15 7 -18 3z m193 -569 c27 -17 60 -70 60 -99 0 -8 -7 -32 -16 -54 -25 -63
-93 -87 -158 -56 -60 29 -83 103 -51 165 29 56 109 77 165 44z m-744 -442 c36
-26 55 -83 43 -126 -12 -45 -42 -73 -91 -87 -61 -16 -119 22 -137 89 -29 103
98 187 185 124z m634 -36 c0 -2 -7 -7 -16 -10 -8 -3 -12 -2 -9 4 6 10 25 14
25 6z m1367 -335 c8 -5 83 -132 92 -156 2 -5 9 -17 16 -25 7 -8 32 -52 56 -98
62 -118 106 -171 164 -201 58 -29 60 -40 29 -134 -25 -76 -62 -135 -125 -198
-93 -92 -194 -130 -339 -126 -85 3 -103 7 -170 38 -173 82 -274 244 -273 439
1 216 139 398 344 454 53 15 189 19 206 7z m-1678 -1278 c0 -241 0 -446 1
-455 0 -17 19 -18 250 -18 l250 0 0 -69 0 -69 -329 0 -328 0 3 30 c2 16 13 43
25 60 54 76 57 169 7 267 l-33 64 0 314 0 313 77 0 77 0 0 -437z m1847 132
c87 -26 159 -103 180 -195 8 -36 14 -515 6 -537 -3 -9 -25 -13 -63 -13 -52 0
-59 2 -60 20 -1 11 -3 25 -4 30 -1 6 -3 17 -4 26 -1 12 -10 6 -33 -19 -43 -45
-106 -68 -186 -68 -155 0 -272 98 -272 227 0 172 177 267 428 230 49 -7 52 -7
52 14 0 82 -45 150 -110 167 -78 21 -179 -14 -210 -71 -7 -14 -16 -26 -19 -26
-3 0 -30 14 -59 30 -56 33 -56 32 -15 86 72 96 234 139 369 99z m-1106 -223
c0 -135 5 -242 12 -270 22 -93 69 -132 154 -128 85 4 163 72 178 156 2 14 5
124 5 245 l1 220 73 0 72 0 0 -372 1 -371 -63 0 c-35 0 -64 4 -64 9 -1 5 -3
14 -4 19 -1 6 -3 29 -4 52 l-1 43 -22 -31 c-92 -129 -306 -142 -409 -25 -64
72 -72 117 -73 401 -1 135 0 252 2 260 2 12 18 16 73 16 l69 0 0 -224z"/>
<path d="M4195 2632 c-123 -11 -183 -105 -120 -188 56 -74 215 -58 276 27 16
22 22 46 23 87 1 54 0 56 -29 63 -37 10 -110 15 -150 11z"/>
<path d="M4933 5125 c-119 -26 -242 -111 -305 -211 -135 -215 -76 -504 133
-643 328 -219 766 16 754 405 -3 90 -26 161 -80 245 -106 164 -306 245 -502
204z"/>
</g>
</svg>
